# xmcd CD database file
#
# Track frame offsets:
#	150
#	14016
#	30584
#	45734
#	59536
#	72358
#	83213
#	96218
#	116013
#	132663
#	140750
#	151606
#	162999
#	177371
#
# Disc length: 2570 seconds
#
# Revision: 0
# Processed by: cddbd v1.5.2PL0 Copyright (c) Steve Scherf et al.
# Submitted via: CDex 1.50beta10
#
DISCID=c60a080e
DTITLE=所有歌星 - 校園民歌No.1
DYEAR=1900
DGENRE=Country
TTITLE0=01蘭花草-銀霞
TTITLE1=02踏著夕陽歸去-葉佳修
TTITLE2=03思念總在分手後-潘安邦
TTITLE3=04被遺忘的時光-蔡琴
TTITLE4=05匆匆別後-梁弘志
TTITLE5=06愛情-王瑩玲
TTITLE6=07想你的時候-蔡琴
TTITLE7=08偶然-卓秀琴
TTITLE8=09鄉間小路-齊豫
TTITLE9=10蝸牛與黃驪鳥-銀霞
TTITLE10=11改換-陳淑樺
TTITLE11=12祈禱-李碧華
TTITLE12=13回家-潘安邦
TTITLE13=14歸來吧！蘇連多-蔡琴
EXTD=
EXTT0=
EXTT1=
EXTT2=
EXTT3=
EXTT4=
EXTT5=
EXTT6=
EXTT7=
EXTT8=
EXTT9=
EXTT10=
EXTT11=
EXTT12=
EXTT13=
PLAYORDER=
